<svg width="32" height="32" viewBox="0 0 150 150" fill="none" xmlns="http://www.w3.org/2000/svg">
<circle cx="75" cy="75" r="75" fill="#0098EA"/>
<path d="M91.1834 74.9313C91.1834 71.2289 91.9844 67.9359 93.5864 65.0522C95.1884 62.133 97.4134 59.8724 100.261 58.2704C103.145 56.6328 106.402 55.814 110.034 55.814C114.484 55.814 118.293 56.9888 121.461 59.3384C123.613 60.9342 125.281 62.9242 126.464 65.3082C127.338 67.0703 125.891 68.9505 123.924 68.9505H119.669C118.513 68.9505 117.499 68.2534 116.794 67.3374C116.178 66.5375 115.437 65.8826 114.573 65.3726C113.22 64.5538 111.671 64.1444 109.927 64.1444C107.114 64.1444 104.836 65.1234 103.092 67.0815C101.347 69.0395 100.475 71.6561 100.475 74.9313C100.475 78.2065 101.347 80.8231 103.092 82.7812C104.836 84.7392 107.114 85.7182 109.927 85.7182C111.671 85.7182 113.22 85.3088 114.573 84.49C115.437 83.98 116.178 83.3251 116.794 82.5252C117.499 81.6093 118.513 80.9122 119.669 80.9122H123.924C125.891 80.9122 127.338 82.7924 126.464 84.5544C125.281 86.9385 123.613 88.9284 121.461 90.5242C118.293 92.8382 114.484 93.9952 110.034 93.9952C106.402 93.9952 103.145 93.1942 100.261 91.5922C97.4134 89.9546 95.1884 87.694 93.5864 84.8104C91.9844 81.9268 91.1834 78.6337 91.1834 74.9313Z" fill="white"/>
<path d="M83.4632 72.7133C82.6862 73.3866 82.7614 75.4499 83.5801 76.0718C84.2283 76.5641 84.8102 77.1561 85.3261 77.8478C86.6308 79.5609 87.2831 81.5292 87.2831 83.7527C87.2831 86.9602 86.19 89.5117 84.0037 91.4071C81.8527 93.266 78.8378 94.1955 74.9589 94.1955H58.6626C58.1103 94.1955 57.6626 93.7478 57.6626 93.1955V56.814C57.6626 56.2617 58.1103 55.814 58.6626 55.814H74.3771C78.1502 55.814 81.0946 56.707 83.2103 58.493C85.3613 60.2791 86.4368 62.703 86.4368 65.7647C86.4368 68.0246 85.855 69.9018 84.6913 71.3962C84.3233 71.8837 83.9139 72.3227 83.4632 72.7133ZM66.7075 70.3415C66.7075 70.8938 67.1552 71.3415 67.7075 71.3415H72.6316C74.1126 71.3415 75.241 71.0135 76.0168 70.3574C76.8278 69.6649 77.2333 68.6625 77.2333 67.3503C77.2333 66.0381 76.8278 65.0357 76.0168 64.3432C75.241 63.6507 74.1126 63.3044 72.6316 63.3044H67.7075C67.1552 63.3044 66.7075 63.7521 66.7075 64.3044V70.3415ZM73.3721 86.6504C74.8884 86.6504 76.052 86.3041 76.8631 85.6116C77.7094 84.8826 78.1325 83.8438 78.1325 82.4951C78.1325 81.1465 77.6917 80.0895 76.8102 79.324C75.9639 78.5586 74.7826 78.1759 73.2663 78.1759H67.7075C67.1552 78.1759 66.7075 78.6236 66.7075 79.1759V85.6504C66.7075 86.2027 67.1552 86.6504 67.7075 86.6504H73.3721Z" fill="white"/>
<path d="M38.2416 94.2088C35.5003 94.2088 33.0439 93.7638 30.8723 92.8738C28.7007 91.9838 26.9563 90.6666 25.6391 88.9222C24.9237 87.9486 24.397 86.864 24.0587 85.6685C23.5983 84.0415 25.0072 82.621 26.6981 82.621H30.6207C32.159 82.621 33.3097 83.8956 34.1878 85.1587C34.358 85.4036 34.5522 85.6257 34.7705 85.825C35.5893 86.537 36.6574 86.893 37.9746 86.893C39.3274 86.893 40.3954 86.5904 41.1786 85.9852C41.9618 85.3444 42.3534 84.4722 42.3534 83.3686C42.3534 82.443 42.033 81.6776 41.3922 81.0723C40.787 80.4671 40.0216 79.9687 39.096 79.5771C38.206 79.1855 36.9244 78.7405 35.2511 78.2421C32.8303 77.4945 30.8545 76.7469 29.3237 75.9993C27.7929 75.2517 26.4757 74.1481 25.3721 72.6885C24.2685 71.2289 23.7167 69.3243 23.7167 66.9747C23.7167 63.4858 24.9805 60.7624 27.5081 58.8044C30.0357 56.8108 33.3287 55.814 37.3872 55.814C41.5168 55.814 44.8454 56.8108 47.373 58.8044C49.1025 60.1441 50.282 61.8506 50.9114 63.9236C51.4101 65.5659 49.9924 67.0281 48.2761 67.0281H44.3811C42.7927 67.0281 41.6174 65.6035 40.5088 64.4659C40.4176 64.3723 40.3204 64.283 40.2174 64.1978C39.3986 63.4858 38.3484 63.1298 37.0668 63.1298C35.9631 63.1298 35.0731 63.4324 34.3967 64.0376C33.7203 64.6072 33.3821 65.4438 33.3821 66.5475C33.3821 67.7579 33.9517 68.7013 35.0909 69.3777C36.2302 70.0541 38.0102 70.7839 40.431 71.5671C42.8518 72.3859 44.8098 73.1691 46.305 73.9167C47.8358 74.6643 49.153 75.7501 50.2566 77.1741C51.3603 78.5981 51.9121 80.4315 51.9121 82.6744C51.9121 84.8104 51.3603 86.7506 50.2566 88.495C49.1886 90.2394 47.6222 91.6278 45.5574 92.6602C43.4926 93.6926 41.054 94.2088 38.2416 94.2088Z" fill="white"/>
</svg>
